<svg width="66" height="65" viewBox="0 0 66 65" fill="none" xmlns="http://www.w3.org/2000/svg">
<g filter="url(#filter0_i_4_47)">
<path d="M63.6918 32.5C63.6918 49.1824 49.9578 62.7192 33 62.7192C16.0422 62.7192 2.30822 49.1824 2.30822 32.5C2.30822 15.8176 16.0422 2.28082 33 2.28082C49.9578 2.28082 63.6918 15.8176 63.6918 32.5ZM33 63.7192C50.4957 63.7192 64.6918 49.749 64.6918 32.5C64.6918 15.251 50.4957 1.28082 33 1.28082C15.5043 1.28082 1.30822 15.251 1.30822 32.5C1.30822 49.749 15.5043 63.7192 33 63.7192ZM65.5 32.5C65.5 50.1659 50.9565 64.5 33 64.5C15.0435 64.5 0.5 50.1659 0.5 32.5C0.5 14.8341 15.0435 0.5 33 0.5C50.9565 0.5 65.5 14.8341 65.5 32.5Z" stroke="#7B66FF"/>
</g>
<g filter="url(#filter1_i_4_47)">
<path fill-rule="evenodd" clip-rule="evenodd" d="M61.2436 42.4644C59.4908 47.4436 56.4259 51.8414 52.4384 55.2357V57.6495C60.7489 52.0756 66.0798 42.1709 65.6637 31.0969C65.1842 21.7502 60.734 13.5148 53.9947 7.90822C53.4882 7.51174 52.9692 7.1322 52.4384 6.77036V10.0264C58.5674 14.8242 62.6885 22.3502 63.0718 30.9887C63.252 35.0486 62.5879 38.9347 61.2436 42.4644Z" fill="#C5FFF8"/>
</g>
<defs>
<filter id="filter0_i_4_47" x="0" y="0" width="66" height="69" filterUnits="userSpaceOnUse" color-interpolation-filters="sRGB">
<feFlood flood-opacity="0" result="BackgroundImageFix"/>
<feBlend mode="normal" in="SourceGraphic" in2="BackgroundImageFix" result="shape"/>
<feColorMatrix in="SourceAlpha" type="matrix" values="0 0 0 0 0 0 0 0 0 0 0 0 0 0 0 0 0 0 127 0" result="hardAlpha"/>
<feOffset dy="4"/>
<feGaussianBlur stdDeviation="2"/>
<feComposite in2="hardAlpha" operator="arithmetic" k2="-1" k3="1"/>
<feColorMatrix type="matrix" values="0 0 0 0 0 0 0 0 0 0 0 0 0 0 0 0 0 0 0.25 0"/>
<feBlend mode="normal" in2="shape" result="effect1_innerShadow_4_47"/>
</filter>
<filter id="filter1_i_4_47" x="52.4384" y="6.77036" width="13.248" height="54.8791" filterUnits="userSpaceOnUse" color-interpolation-filters="sRGB">
<feFlood flood-opacity="0" result="BackgroundImageFix"/>
<feBlend mode="normal" in="SourceGraphic" in2="BackgroundImageFix" result="shape"/>
<feColorMatrix in="SourceAlpha" type="matrix" values="0 0 0 0 0 0 0 0 0 0 0 0 0 0 0 0 0 0 127 0" result="hardAlpha"/>
<feOffset dy="4"/>
<feGaussianBlur stdDeviation="2"/>
<feComposite in2="hardAlpha" operator="arithmetic" k2="-1" k3="1"/>
<feColorMatrix type="matrix" values="0 0 0 0 0 0 0 0 0 0 0 0 0 0 0 0 0 0 0.25 0"/>
<feBlend mode="normal" in2="shape" result="effect1_innerShadow_4_47"/>
</filter>
</defs>
</svg>
